<svg width="94" height="34" viewBox="0 0 94 34" fill="none" xmlns="http://www.w3.org/2000/svg">
<path d="M41.5332 27.1973H45.105V28.0826H42.5791V29.2413H44.7905V30.1163H42.5791V32.2286H41.5332V27.1973ZM46.7354 28.0587H45.7476V27.1597H46.7354V28.0587ZM45.7476 28.503H46.7354V32.2286H45.7476V28.503ZM48.6768 32.2286H47.7026V27.1905H48.6768V32.2286ZM53.7935 28.421C53.9575 28.421 54.1193 28.4529 54.2788 28.5167C54.4383 28.5805 54.583 28.6921 54.7129 28.8516C54.8177 28.9815 54.8883 29.141 54.9248 29.3301C54.9476 29.4555 54.959 29.6389 54.959 29.8804L54.9521 32.2286H53.9541V29.8565C53.9541 29.7152 53.9313 29.599 53.8857 29.5079C53.7992 29.3347 53.6396 29.2481 53.4072 29.2481C53.1383 29.2481 52.9526 29.3598 52.8501 29.5831C52.7977 29.7016 52.7715 29.844 52.7715 30.0103V32.2286H51.7905V30.0103C51.7905 29.7893 51.7677 29.6286 51.7222 29.5284C51.6401 29.3484 51.4795 29.2584 51.2402 29.2584C50.9622 29.2584 50.7754 29.3484 50.6797 29.5284C50.6273 29.6309 50.6011 29.7836 50.6011 29.9864V32.2286H49.6133V28.5098H50.5601V29.0533C50.6808 28.8596 50.7948 28.7217 50.9019 28.6397C51.091 28.4939 51.3359 28.421 51.6367 28.421C51.9215 28.421 52.1517 28.4836 52.3271 28.6089C52.4684 28.7252 52.5755 28.8744 52.6484 29.0567C52.776 28.838 52.9344 28.6773 53.1235 28.5748C53.3241 28.4722 53.5474 28.421 53.7935 28.421ZM58.4248 30.3658C58.4248 30.0787 58.3587 29.8246 58.2266 29.6036C58.0967 29.3825 57.8848 29.272 57.5908 29.272C57.2376 29.272 56.995 29.4395 56.8628 29.7745C56.7944 29.9522 56.7603 30.1778 56.7603 30.4512C56.7603 30.8842 56.8753 31.1884 57.1055 31.3638C57.2422 31.4664 57.404 31.5176 57.5908 31.5176C57.862 31.5176 58.0682 31.4128 58.2095 31.2032C58.353 30.9936 58.4248 30.7144 58.4248 30.3658ZM57.8711 28.421C58.3063 28.421 58.6743 28.5816 58.9751 28.9029C59.2782 29.2242 59.4297 29.6959 59.4297 30.3179C59.4297 30.9742 59.2816 31.4743 58.9854 31.8184C58.6914 32.1625 58.312 32.3345 57.8472 32.3345C57.5509 32.3345 57.3049 32.2605 57.1089 32.1124C57.0018 32.0303 56.897 31.9107 56.7944 31.7535V33.6949H55.8306V28.503H56.7637V29.0533C56.8685 28.8915 56.9801 28.7639 57.0986 28.6705C57.3151 28.5041 57.5726 28.421 57.8711 28.421ZM62.1606 28.4141C62.1789 28.4141 62.1937 28.4153 62.2051 28.4175C62.2188 28.4175 62.2472 28.4187 62.2905 28.421V29.419C62.229 29.4122 62.1743 29.4076 62.1265 29.4053C62.0786 29.4031 62.0399 29.4019 62.0103 29.4019C61.6183 29.4019 61.3551 29.5295 61.2207 29.7847C61.1455 29.9283 61.1079 30.1493 61.1079 30.4478V32.2286H60.127V28.503H61.0566V29.1524C61.207 28.904 61.3381 28.7343 61.4497 28.6431C61.632 28.4905 61.869 28.4141 62.1606 28.4141ZM64.5361 31.5416C64.821 31.5416 65.0397 31.4402 65.1924 31.2374C65.3451 31.0346 65.4214 30.7463 65.4214 30.3726C65.4214 29.9989 65.3451 29.7118 65.1924 29.5113C65.0397 29.3085 64.821 29.2071 64.5361 29.2071C64.2513 29.2071 64.0314 29.3085 63.8765 29.5113C63.7238 29.7118 63.6475 29.9989 63.6475 30.3726C63.6475 30.7463 63.7238 31.0346 63.8765 31.2374C64.0314 31.4402 64.2513 31.5416 64.5361 31.5416ZM66.4434 30.3726C66.4434 30.9195 66.2861 31.3878 65.9717 31.7774C65.6572 32.1648 65.1799 32.3585 64.5396 32.3585C63.8993 32.3585 63.4219 32.1648 63.1074 31.7774C62.793 31.3878 62.6357 30.9195 62.6357 30.3726C62.6357 29.8349 62.793 29.3689 63.1074 28.9747C63.4219 28.5805 63.8993 28.3834 64.5396 28.3834C65.1799 28.3834 65.6572 28.5805 65.9717 28.9747C66.2861 29.3689 66.4434 29.8349 66.4434 30.3726ZM68.5181 28.4141C68.7437 28.4141 68.9442 28.4643 69.1196 28.5645C69.2951 28.6625 69.4375 28.7992 69.5469 28.9747V27.1973H70.5347V32.2286H69.5879V31.7125C69.4489 31.9335 69.2905 32.0941 69.1128 32.1944C68.9351 32.2947 68.714 32.3448 68.4497 32.3448C68.0145 32.3448 67.6476 32.1693 67.3491 31.8184C67.0529 31.4652 66.9048 31.0129 66.9048 30.4615C66.9048 29.8257 67.0506 29.3256 67.3423 28.961C67.6362 28.5964 68.0282 28.4141 68.5181 28.4141ZM68.73 31.5245C69.0057 31.5245 69.2153 31.4219 69.3589 31.2169C69.5024 31.0118 69.5742 30.7463 69.5742 30.4205C69.5742 29.9647 69.4591 29.6389 69.229 29.4429C69.0877 29.3244 68.9237 29.2652 68.7368 29.2652C68.452 29.2652 68.2424 29.3734 68.1079 29.5899C67.9757 29.8041 67.9097 30.0707 67.9097 30.3897C67.9097 30.7338 67.9769 31.0095 68.1113 31.2169C68.248 31.4219 68.4543 31.5245 68.73 31.5245ZM72.394 28.503V30.7486C72.394 30.9605 72.4191 31.12 72.4692 31.2271C72.5581 31.4162 72.7324 31.5108 72.9922 31.5108C73.3249 31.5108 73.5527 31.3764 73.6758 31.1075C73.7396 30.9616 73.7715 30.7691 73.7715 30.5298V28.503H74.7593V32.2286H73.8125V31.7022C73.8034 31.7136 73.7806 31.7478 73.7441 31.8047C73.7077 31.8617 73.6644 31.9118 73.6143 31.9551C73.4616 32.0919 73.3135 32.1853 73.1699 32.2354C73.0286 32.2855 72.8623 32.3106 72.6709 32.3106C72.1195 32.3106 71.748 32.1124 71.5566 31.7159C71.4495 31.4971 71.396 31.1747 71.396 30.7486V28.503H72.394ZM75.6924 27.2076H76.6494V29.9214L77.8628 28.5201H79.0693L77.7671 29.9454L79.1206 32.2286H77.9448L77.0527 30.6358L76.6494 31.0562V32.2286H75.6924V27.2076ZM79.2163 29.231V28.5372H79.7358V27.4981H80.6997V28.5372H81.3047V29.231H80.6997V31.1998C80.6997 31.3524 80.7191 31.4481 80.7578 31.4869C80.7965 31.5233 80.915 31.5416 81.1133 31.5416C81.1429 31.5416 81.1737 31.5416 81.2056 31.5416C81.2397 31.5393 81.2728 31.537 81.3047 31.5347V32.2628L80.8433 32.2798C80.383 32.2958 80.0685 32.216 79.8999 32.0406C79.7905 31.9289 79.7358 31.7569 79.7358 31.5245V29.231H79.2163ZM82.9316 28.0587H81.9438V27.1597H82.9316V28.0587ZM81.9438 28.503H82.9316V32.2286H81.9438V28.503ZM85.5498 31.5416C85.8346 31.5416 86.0534 31.4402 86.2061 31.2374C86.3587 31.0346 86.4351 30.7463 86.4351 30.3726C86.4351 29.9989 86.3587 29.7118 86.2061 29.5113C86.0534 29.3085 85.8346 29.2071 85.5498 29.2071C85.265 29.2071 85.0451 29.3085 84.8901 29.5113C84.7375 29.7118 84.6611 29.9989 84.6611 30.3726C84.6611 30.7463 84.7375 31.0346 84.8901 31.2374C85.0451 31.4402 85.265 31.5416 85.5498 31.5416ZM87.457 30.3726C87.457 30.9195 87.2998 31.3878 86.9854 31.7774C86.6709 32.1648 86.1935 32.3585 85.5532 32.3585C84.9129 32.3585 84.4355 32.1648 84.1211 31.7774C83.8066 31.3878 83.6494 30.9195 83.6494 30.3726C83.6494 29.8349 83.8066 29.3689 84.1211 28.9747C84.4355 28.5805 84.9129 28.3834 85.5532 28.3834C86.1935 28.3834 86.6709 28.5805 86.9854 28.9747C87.2998 29.3689 87.457 29.8349 87.457 30.3726ZM90.2222 28.4141C90.6073 28.4141 90.9217 28.5155 91.1655 28.7183C91.4116 28.9188 91.5347 29.2527 91.5347 29.7198V32.2286H90.5366V29.9625C90.5366 29.7665 90.5104 29.6161 90.458 29.5113C90.3623 29.3199 90.18 29.2242 89.9111 29.2242C89.5807 29.2242 89.354 29.3643 89.231 29.6446C89.1672 29.7927 89.1353 29.9818 89.1353 30.212V32.2286H88.1646V28.5098H89.1045V29.0533C89.2298 28.8619 89.3483 28.724 89.46 28.6397C89.6605 28.4893 89.9146 28.4141 90.2222 28.4141Z" fill="white"/>
<path d="M1.96533 5.00684H5.66406V12.4165L12.6099 5.00684H17.4683L10.0952 12.4165L17.8467 23H13.0127L7.4585 15.1387L5.66406 16.9819V23H1.96533V5.00684ZM25.6592 20.5464C26.6764 20.5464 27.4577 20.1842 28.0029 19.46C28.5482 18.7357 28.8208 17.7062 28.8208 16.3716C28.8208 15.0369 28.5482 14.0116 28.0029 13.2954C27.4577 12.5711 26.6764 12.209 25.6592 12.209C24.6419 12.209 23.8566 12.5711 23.3032 13.2954C22.758 14.0116 22.4854 15.0369 22.4854 16.3716C22.4854 17.7062 22.758 18.7357 23.3032 19.46C23.8566 20.1842 24.6419 20.5464 25.6592 20.5464ZM32.4707 16.3716C32.4707 18.3247 31.9092 19.9971 30.7861 21.3887C29.6631 22.7721 27.9582 23.4639 25.6714 23.4639C23.3846 23.4639 21.6797 22.7721 20.5566 21.3887C19.4336 19.9971 18.8721 18.3247 18.8721 16.3716C18.8721 14.451 19.4336 12.7868 20.5566 11.3789C21.6797 9.97103 23.3846 9.26709 25.6714 9.26709C27.9582 9.26709 29.6631 9.97103 30.7861 11.3789C31.9092 12.7868 32.4707 14.451 32.4707 16.3716ZM38.6108 8.10742H35.1318V4.89697H38.6108V8.10742ZM33.4595 25.5513C33.6548 25.5675 33.7931 25.5757 33.8745 25.5757C33.9559 25.5838 34.0291 25.5879 34.0942 25.5879C34.436 25.5879 34.6924 25.5024 34.8633 25.3315C35.0423 25.1688 35.1318 24.8473 35.1318 24.3672V9.75537H38.6108V24.4282C38.6108 25.771 38.3464 26.7638 37.8174 27.4067C37.2884 28.0496 36.2508 28.3711 34.7046 28.3711C34.5988 28.3711 34.4401 28.367 34.2285 28.3589C34.0251 28.3507 33.7687 28.3426 33.4595 28.3345V25.5513ZM47.9004 20.5464C48.9176 20.5464 49.6989 20.1842 50.2441 19.46C50.7894 18.7357 51.062 17.7062 51.062 16.3716C51.062 15.0369 50.7894 14.0116 50.2441 13.2954C49.6989 12.5711 48.9176 12.209 47.9004 12.209C46.8831 12.209 46.0978 12.5711 45.5444 13.2954C44.9992 14.0116 44.7266 15.0369 44.7266 16.3716C44.7266 17.7062 44.9992 18.7357 45.5444 19.46C46.0978 20.1842 46.8831 20.5464 47.9004 20.5464ZM54.7119 16.3716C54.7119 18.3247 54.1504 19.9971 53.0273 21.3887C51.9043 22.7721 50.1994 23.4639 47.9126 23.4639C45.6258 23.4639 43.9209 22.7721 42.7979 21.3887C41.6748 19.9971 41.1133 18.3247 41.1133 16.3716C41.1133 14.451 41.6748 12.7868 42.7979 11.3789C43.9209 9.97103 45.6258 9.26709 47.9126 9.26709C50.1994 9.26709 51.9043 9.97103 53.0273 11.3789C54.1504 12.7868 54.7119 14.451 54.7119 16.3716ZM55.8472 12.2944V9.81641H57.7026V6.10547H61.145V9.81641H63.3057V12.2944H61.145V19.3257C61.145 19.8709 61.2142 20.2127 61.3525 20.3511C61.4909 20.4813 61.9141 20.5464 62.6221 20.5464C62.7279 20.5464 62.8377 20.5464 62.9517 20.5464C63.0737 20.5382 63.1917 20.5301 63.3057 20.522V23.1221L61.6577 23.1831C60.0138 23.2401 58.8908 22.9552 58.2886 22.3286C57.8979 21.9299 57.7026 21.3154 57.7026 20.4854V12.2944H55.8472ZM70.7886 12.209C69.9829 12.209 69.3563 12.4613 68.9087 12.9658C68.4692 13.4704 68.1925 14.154 68.0786 15.0166H73.4863C73.4294 14.097 73.1486 13.4012 72.644 12.9292C72.1476 12.4491 71.5291 12.209 70.7886 12.209ZM70.7886 9.34033C71.8953 9.34033 72.8923 9.54785 73.7793 9.96289C74.6663 10.3779 75.3988 11.033 75.9766 11.9282C76.4974 12.7176 76.8351 13.6331 76.9897 14.6748C77.0793 15.2852 77.1159 16.1641 77.0996 17.3115H67.9932C68.042 18.6462 68.4611 19.582 69.2505 20.1191C69.7306 20.4528 70.3084 20.6196 70.9839 20.6196C71.7 20.6196 72.2819 20.4162 72.7295 20.0093C72.9736 19.7896 73.1893 19.4844 73.3765 19.0938H76.9287C76.8392 19.8831 76.4282 20.6847 75.6958 21.4985C74.5565 22.7925 72.9614 23.4395 70.9106 23.4395C69.2179 23.4395 67.7246 22.8942 66.4307 21.8037C65.1367 20.7132 64.4897 18.9391 64.4897 16.4814C64.4897 14.1784 65.0716 12.4124 66.2354 11.1836C67.4072 9.95475 68.925 9.34033 70.7886 9.34033ZM86.8286 9.37695C88.2039 9.37695 89.327 9.7391 90.1978 10.4634C91.0767 11.1795 91.5161 12.3717 91.5161 14.04V23H87.9517V14.9067C87.9517 14.2069 87.8581 13.6698 87.6709 13.2954C87.3291 12.6118 86.6781 12.27 85.7178 12.27C84.5378 12.27 83.728 12.7705 83.2886 13.7715C83.0607 14.3005 82.9468 14.9759 82.9468 15.7979V23H79.48V9.71875H82.8369V11.6597C83.2845 10.9761 83.7077 10.4837 84.1064 10.1826C84.8226 9.64551 85.73 9.37695 86.8286 9.37695Z" fill="white"/>
</svg>
